# xmcd CD database file
#
# Track frame offsets:
#	150
#	13578
#	26618
#	39785
#	55277
#	67317
#	77682
#	91982
#	107416
#	120750
#
# Disc length: 1795 seconds
#
# Revision: 0
# Processed by: cddbd v1.5.2PL0 Copyright (c) Steve Scherf et al.
# Submitted via: CDex 1.70beta2
#
DISCID=6f07010a
DTITLE=Mandrell, Barbara - USA - Woman to Woman
DYEAR=1900
DGENRE=Country
TTITLE0=Midnight Angel
TTITLE1=Love Is Thin Ice
TTITLE2=Hold Me
TTITLE3=After the Lovin'
TTITLE4=That's What Friends Are For
TTITLE5=Sleeping Single
TTITLE6=Standing Room Only
TTITLE7=Woman To Woman
TTITLE8=Married But Not To Each other
TTITLE9=I Don's Wanna Be Right
EXTD=
EXTT0=
EXTT1=
EXTT2=
EXTT3=
EXTT4=
EXTT5=
EXTT6=
EXTT7=
EXTT8=
EXTT9=
PLAYORDER=
